<?xml version="1.0" standalone="no"?><!DOCTYPE svg PUBLIC "-//W3C//DTD SVG 1.1//EN" "http://www.w3.org/Graphics/SVG/1.1/DTD/svg11.dtd"><svg t="1701928907343" class="icon" viewBox="0 0 1024 1024" version="1.1" xmlns="http://www.w3.org/2000/svg" p-id="3543" width="32" height="32" xmlns:xlink="http://www.w3.org/1999/xlink"><path d="M614.251594 562.457971H246.724638a18.550725 18.550725 0 0 0 0 37.101449h367.526956a18.550725 18.550725 0 0 0 0-37.101449zM614.251594 461.542029H482.318841a18.550725 18.550725 0 0 0 0 37.101449h131.932753a18.550725 18.550725 0 0 0 0-37.101449zM507.547826 727.188406H250.212174a18.550725 18.550725 0 1 0 0 37.101449H507.547826a18.550725 18.550725 0 0 0 0-37.101449z" fill="#FC937C" p-id="3544"></path><path d="M226.986667 367.526957m29.681159 0l109.152464 0q29.681159 0 29.681159 29.681159l0 73.683478q0 29.681159-29.681159 29.68116l-109.152464 0q-29.681159 0-29.681159-29.68116l0-73.683478q0-29.681159 29.681159-29.681159Z" fill="#FC937C" p-id="3545"></path><path d="M614.251594 644.748986H250.212174a18.550725 18.550725 0 0 0 0 37.101449h364.03942a18.550725 18.550725 0 0 0 0-37.101449z" fill="#FC937C" p-id="3546"></path><path d="M883.014493 7.42029H140.985507A133.565217 133.565217 0 0 0 7.42029 140.985507v742.028986a133.565217 133.565217 0 0 0 133.565217 133.565217h742.028986a133.565217 133.565217 0 0 0 133.565217-133.565217V140.985507a133.565217 133.565217 0 0 0-133.565217-133.565217z m14.840579 420.35942l-49.715942 384.222609a66.114783 66.114783 0 0 1-63.814492 57.804058H190.404638a59.362319 59.362319 0 0 1-59.362319-59.362319V211.404058a59.362319 59.362319 0 0 1 59.362319-59.362319H704.927536a59.362319 59.362319 0 0 1 59.362319 59.362319v615.884058h30.274783V369.901449h52.980869a50.457971 50.457971 0 0 1 50.754783 57.878261z" fill="#FC937C" p-id="3547"></path><path d="M632.950725 251.547826H256.667826a29.681159 29.681159 0 1 0 0 58.842899H632.950725a29.681159 29.681159 0 1 0 0-58.842899zM614.251594 375.689275H482.318841a18.550725 18.550725 0 0 0 0 37.10145h131.932753a18.550725 18.550725 0 0 0 0-37.10145z" fill="#FC937C" p-id="3548"></path></svg>